<?xml version="1.0" encoding="UTF-8" standalone="no"?>
<!-- Created with Inkscape (http://www.inkscape.org/) -->

<svg
   xmlns:dc="http://purl.org/dc/elements/1.1/"
   xmlns:cc="http://creativecommons.org/ns#"
   xmlns:rdf="http://www.w3.org/1999/02/22-rdf-syntax-ns#"
   xmlns:svg="http://www.w3.org/2000/svg"
   xmlns="http://www.w3.org/2000/svg"
   xmlns:sodipodi="http://sodipodi.sourceforge.net/DTD/sodipodi-0.dtd"
   xmlns:inkscape="http://www.inkscape.org/namespaces/inkscape"
   width="210mm"
   height="297mm"
   id="svg3330"
   version="1.1"
   inkscape:version="0.48.5 r10040"
   sodipodi:docname="paris.svg">
  <defs
     id="defs3332" />
  <sodipodi:namedview
     id="base"
     pagecolor="#ffffff"
     bordercolor="#666666"
     borderopacity="1.0"
     inkscape:pageopacity="0.0"
     inkscape:pageshadow="2"
     inkscape:zoom="0.35"
     inkscape:cx="350"
     inkscape:cy="520"
     inkscape:document-units="px"
     inkscape:current-layer="layer1"
     showgrid="false"
     inkscape:window-width="1366"
     inkscape:window-height="720"
     inkscape:window-x="-2"
     inkscape:window-y="25"
     inkscape:window-maximized="1" />
  <metadata
     id="metadata3335">
    <rdf:RDF>
      <cc:Work
         rdf:about="">
        <dc:format>image/svg+xml</dc:format>
        <dc:type
           rdf:resource="http://purl.org/dc/dcmitype/StillImage" />
        <dc:title></dc:title>
      </cc:Work>
    </rdf:RDF>
  </metadata>
  <g
     inkscape:label="Capa 1"
     inkscape:groupmode="layer"
     id="layer1">
    <path
       d="m 732.92377,165.69655 -0.21069,-22.32054 -2.82823,-6.79638 -0.005,-0.44031 -0.50513,-1.82875 -0.15948,0.6537 -1.2696,-3.04161 -0.005,-0.95625 -4.60566,-0.0298 -0.027,-3.40898 -3.89792,-0.0298 -0.005,-0.75635 -1.55864,-0.0103 -1.22367,0.32686 0.0703,10.75643 -1.0616,2.7985 -0.76986,0 -0.70773,-1.80174 -0.0104,-1.40736 -0.31604,-1.45868 -0.26743,1.35873 -1.16695,-2.95788 -0.0216,-4.34903 -3.69262,-0.0216 -0.29715,0.0728 0.0216,3.50894 -0.78067,-0.005 -1.10211,0.2053 -0.61319,0.11626 -0.0194,-3.60889 -1.23989,-0.009 -0.76986,0.20249 0.0406,8.79531 -0.49433,1.34253 -3.46841,-0.005 -4.87849,-0.005 -0.005,-1.89089 -0.77526,-3.09835 -0.0432,-15.66462 0.38087,-0.22691 -0.005,-2.44464 -1.83145,-0.0216 -0.98056,0.67802 0.005,2.38252 0.32144,0.005 0.0216,8.96009 -0.33225,-0.002 -2.84983,-8.28208 -0.005,-5.9995 -6.23723,-0.0836 0.005,6.01842 -2.75799,9.18159 -0.56455,1.87738 0,-12.08276 0.36467,-0.35115 0,-2.46086 -1.85848,-0.0241 -0.60238,0.68883 0,2.39873 0.31335,0.007 -0.005,17.76622 -0.32146,1.0832 0,0.91304 -1.01027,-6.98548 0.005,-6.11025 -9.60568,-0.0728 0.005,-0.8428 -0.0216,-0.002 0.0104,-8.64134 -0.16489,-1.44518 -0.75905,-1.302 -0.86981,-0.68613 0.75365,-0.0811 0.11062,-0.29444 0,-0.4322 -0.55916,-0.0865 0.005,-6.58297 0.44842,-0.0622 0.11605,-0.36467 0,-0.33227 -0.39979,-0.0782 -0.18088,-1.05619 -0.8428,-1.11022 -1.06159,-0.2323 0.0998,-0.0352 0.1811,-0.13247 0.12966,-0.17288 0.0919,-0.19989 0.0241,-0.2161 -0.0241,-0.2188 -0.0865,-0.20249 -0.13506,-0.17547 -0.17569,-0.13766 -0.14847,-0.0622 -0.26742,-9.389577 -0.29714,9.378777 -0.14586,0.0566 -0.17569,0.13248 -0.13507,0.17028 -0.0865,0.1999 -0.0295,0.2161 0.0295,0.22151 0.0865,0.20248 0.12966,0.17568 0.1811,0.13766 0.0998,0.0432 -1.02378,0.19167 -0.82929,1.08051 -0.17828,1.0724 -0.33226,0.0486 -0.0594,0.37278 0,0.32686 0.55376,0.10004 -0.013,6.58838 -0.49702,0.0594 -0.0568,0.29714 0,0.4295 0.86981,0.12707 -0.81849,0.6456 -0.74824,1.2831 -0.0649,0.34846 -0.16208,1.44248 -0.0151,8.3415 -0.054,0.2053 -0.005,1.39385 -0.25663,-0.0216 -0.0216,4.92171 0.0998,0.005 -0.14846,0 0.0216,-5.67806 -9.78668,-0.0757 -0.0324,6.1859 -1.18585,9.42741 -0.14306,1.15884 -0.44301,0 0.005,-1.11562 0.0324,0 0.12146,-22.43939 0.29443,0.002 0.0152,-2.43385 -0.1945,-0.70232 -1.90979,-0.027 -0.0151,2.50137 0.24852,0.6429 0.0998,0 -0.0811,13.8872 -1.02378,-3.81418 -2.52028,-9.38419 0.0432,-6.13187 -6.50735,-0.0865 -0.046,6.14808 -2.75529,8.45225 -0.72123,-0.005 -0.12167,0.47813 0.0782,-9.69214 0.32145,0.005 0.0151,-2.44734 -0.60778,-0.71584 -1.9341,-0.0244 -0.0216,2.51487 0.37277,0.37277 -0.0838,10.41607 -0.34307,0 -0.0728,8.60353 -0.0432,0.17008 -0.0151,2.3771 -0.046,0.14048 0.005,-0.57268 -5.82393,-0.005 -5.86174,-0.009 -2.10158,-0.002 -0.23771,-0.67802 0.10545,-9.90283 -0.59427,-0.22151 -1.35604,-0.009 -0.0432,3.82769 -0.76986,-0.1865 -0.93464,-0.2242 -5.23234,-0.0244 -0.0104,0.79418 -1.72071,4.28149 0,-0.002 0.15409,-11.85045 -1.03999,-0.35386 -1.72611,-0.013 -0.0622,4.87848 -0.91843,-0.2188 -1.51811,-0.36737 -6.73966,-0.0378 -0.013,1.01838 -1.60454,3.74125 -0.27013,-0.002 -0.22691,-1.05619 -0.47541,1.82605 -0.0194,1.55052 -2.62832,6.12377 -0.34847,22.32053 -1.00217,0 -0.12706,-21.92615 -0.72665,-0.11885 -0.52944,0 -0.0782,-14.20865 -0.73745,0 -0.0594,-10.76723 -0.49973,0 -0.12707,-24.187117 -0.16467,0 0,-0.46732 -0.25932,-0.002 -0.005,-0.37277 -0.32685,0 0,-0.18628 -0.6375,0 -0.005,-0.78337 -0.0324,-0.10269 -1.53973,-1.4938 -1.48299,1.57214 -0.0674,0.10521 0.005,0.88331 -13.47121,-0.0216 0,-0.1865 -1.65587,-0.002 -0.046,0.2053 -0.0432,0.17287 -0.11627,0 -0.0568,0.25663 -0.054,0.21329 -0.0216,0 -0.0622,0.28633 -0.14328,0.59969 0.005,2.3609 -0.41599,-0.002 -0.0811,0.34847 -0.11085,0 -0.0944,0.4295 -0.0216,0 -0.12167,0.53214 0.027,19.613867 -6.82609,-0.007 -0.22691,-3.16318 -0.68612,-8.47927 -0.84819,-23.317297 -0.85631,23.314597 -0.68611,8.47927 -0.22691,3.16317 -6.48844,-0.002 0.027,-19.624677 -0.10004,-0.53215 -0.0432,0 -0.0836,-0.4295 -0.11062,0 -0.0757,-0.35116 -0.29984,0 0.005,-2.36091 -0.12167,-0.60509 -0.0541,-0.28362 -0.0458,0 -0.0432,-0.21881 -0.046,-0.24851 -0.12684,0 -0.0378,-0.1811 -0.0378,-0.19989 -0.90492,0 0,0.18369 -14.15191,-0.0216 0.0104,-1.13183 -0.0104,-0.10004 -1.4668,-1.63157 -1.40195,1.44518 -0.089,0.0919 -0.0104,1.13722 -0.91843,0 0,0.18368 -0.47543,0 -0.005,0.38089 -0.24311,0 0,0.46462 -0.16747,0 -0.13247,24.235727 -0.47003,0 -0.0568,10.78885 -0.64021,0 -0.0784,14.23836 -0.58077,0 -0.68072,0.11626 -0.13247,21.91535 -9.30586,0 0.0104,-2.04485 -0.13765,-0.11063 -0.53216,-0.40789 0,-18.37939 0.27283,0 0,-0.007 0.005,-1.05889 0.0757,-0.0811 0.0784,-0.0703 0.089,-0.0703 0.0944,-0.0622 0.10268,-0.054 0.0998,-0.046 0.11085,-0.0378 0.11625,-0.0324 0.11605,-0.027 0.11627,-0.0172 0.10004,-0.005 0.13506,0 0,-0.002 0.005,-0.32145 0.20789,0 0,-0.13506 -1.77473,-0.005 0.0757,-10.44038 0.24582,-0.0919 0.0486,-0.0194 0.005,-0.71854 0.24311,-0.10545 0.0458,-0.0151 0.005,-0.78067 0.49703,-0.21611 0.0944,-0.0432 0.005,-0.41599 -1.17235,-0.002 0.027,-3.86011 0.005,-0.71313 2.9822,-1.9287 0.007,-0.75095 0.74824,-0.49974 0,-0.24311 0.13766,-0.0944 0.0103,-0.96704 0.6321,-0.45111 0.13765,-0.0973 0.005,-0.54296 0,-0.10268 -4.00597,-0.0352 0.0324,-4.35444 0.8644,-0.8644 0,-0.002 0.62939,-0.62669 0.12686,-0.12426 0.007,-0.64021 -2.22854,-0.0244 0.0104,-1.77472 -0.0172,-0.0865 -0.0194,-0.0649 -0.0216,-0.046 -0.0216,-0.0216 -0.027,0 -0.13506,-0.002 -0.0432,-0.027 -0.0432,-0.0241 -0.13248,-0.054 -0.14046,-0.0378 -0.14306,-0.0103 -0.14306,0.009 -0.13766,0.0324 -0.13506,0.0486 -0.12166,0.0728 -0.11627,0.0919 -0.0944,0.10269 -0.37548,-0.002 -0.37007,-0.37278 -0.36737,-0.005 -0.37548,0.36467 -0.28092,-0.005 -0.36737,-0.37007 -0.37548,-0.002 -0.37008,0.35926 -0.37277,-0.005 -0.10269,-0.10521 -0.11085,-0.0946 -0.12167,-0.0703 -0.12966,-0.0568 -0.14327,-0.0324 -0.14306,-0.0151 -0.14306,0.0104 -0.14047,0.0296 -0.13247,0.0514 -0.12707,0.0728 -0.11062,0.0865 -0.10004,0.10809 -0.37548,-0.005 -0.36737,-0.37008 -0.37547,-0.005 -0.37548,0.36466 -0.27823,-0.005 -0.37007,-0.37006 -0.37548,-0.005 -0.37277,0.36197 -0.37547,-0.005 -0.10004,-0.10809 -0.11062,-0.0946 -0.12707,-0.0728 -0.13247,-0.054 -0.14306,-0.0351 -0.14046,-0.0104 -0.14306,0.009 -0.13787,0.0324 -0.13766,0.0486 -0.12685,0.0728 -0.11086,0.089 -0.10004,0.10544 -0.37276,-0.005 -0.37548,-0.37007 -0.37548,-0.005 -0.37278,0.36197 -0.28093,-0.002 -0.37547,-0.37278 -0.37277,0 -0.37548,0.35928 -0.37548,-0.002 -0.0568,-0.0622 -0.0432,-0.0486 -0.11062,-0.0919 -0.046,-0.0297 -0.0811,-0.0432 -0.13506,-0.0568 -0.13766,-0.035 -0.14845,-0.0104 -0.14306,0.0104 -0.14047,0.027 -0.13225,0.0541 -0.12707,0.0703 -0.11627,0.089 -0.0944,0.10809 -0.38089,-0.005 -0.37277,-0.37007 -0.37548,-0.005 -0.37547,0.36198 -0.28363,-0.002 -0.37548,-0.37278 -0.37548,-0.005 -0.37817,0.36467 -0.37548,-0.005 -0.10004,-0.10809 -0.11062,-0.0944 -0.12707,-0.0757 -0.13766,-0.0541 -0.14046,-0.0324 -0.14306,-0.013 -0.14328,0.009 -0.14306,0.0324 -0.13506,0.0512 -0.12706,0.0728 -0.11062,0.0892 -0.10004,0.10522 -0.37548,-0.005 -0.38089,-0.37547 -0.37816,-0.002 -0.25393,0.24852 -0.58077,-0.0622 -0.1999,-0.1973 -0.38087,-0.005 -0.13247,0.12708 -0.15667,-0.0173 -0.81849,-0.0324 -0.12166,-0.0514 -0.14306,-0.0324 -0.14587,-0.013 -0.14306,0.0104 -0.14306,0.027 -0.0216,0.0104 -0.60509,-0.0104 -0.56996,-0.0194 -0.0378,-0.0378 -0.37278,-0.005 -0.0595,0.0541 -0.93463,-0.0104 -0.0512,-0.0568 -0.38088,-0.002 -0.0352,0.0378 -0.55376,0.009 -0.62398,-0.009 -0.0216,-0.009 -0.14327,-0.035 -0.14588,-0.0152 -0.14306,0.0104 -0.14306,0.0324 -0.12706,0.0486 -0.80498,0.009 -0.17007,0.0152 -0.13766,-0.13247 -0.37816,-0.002 -0.1999,0.19449 -0.58618,0.046 -0.25931,-0.25662 -0.38089,-0.005 -0.37818,0.36737 -0.38087,-0.005 -0.10004,-0.10809 -0.11605,-0.0919 -0.12707,-0.0757 -0.13765,-0.0568 -0.14047,-0.0324 -0.14867,-0.013 -0.14847,0.0103 -0.14047,0.027 -0.13766,0.0541 -0.12706,0.0703 -0.11627,0.0919 -0.0998,0.10545 -0.38087,0 -0.37818,-0.37818 -0.38628,-0.005 -0.38088,0.36737 -0.28364,-0.002 -0.38627,-0.37818 -0.37818,-0.005 -0.38087,0.36737 -0.38629,-0.002 -0.0998,-0.11085 -0.11627,-0.0919 -0.12426,-0.0782 -0.13765,-0.054 -0.14306,-0.0352 -0.14847,-0.0104 -0.14586,0.009 -0.14306,0.0324 -0.13766,0.0514 -0.0622,0.0324 -0.0648,0.0404 -0.11627,0.0892 -0.0296,0.0324 -0.0703,0.0728 -0.37818,-0.002 -0.39168,-0.37548 -0.38087,-0.005 -0.37819,0.36467 -0.29174,-0.002 -0.38357,-0.37278 -0.38628,-0.005 -0.37818,0.36468 -0.38088,-0.007 -0.10522,-0.10809 -0.11625,-0.0946 -0.12708,-0.0757 -0.13765,-0.0541 -0.14587,-0.0352 -0.14846,-0.0104 -0.14868,0.009 -0.14306,0.0324 -0.13506,0.0514 -0.12707,0.0703 -0.11605,0.0944 -0.10004,0.10545 -0.38629,-0.005 -0.38357,-0.37818 -0.38628,-0.005 -0.38088,0.37006 -0.28904,-0.002 -0.38627,-0.37818 -0.38358,-0.005 -0.38629,0.36737 -0.37817,-0.007 -0.10521,-0.10809 -0.11626,-0.0946 -0.13247,-0.0757 -0.13765,-0.054 -0.14306,-0.0378 -0.15127,-0.0104 -0.14847,0.009 -0.14327,0.0324 -0.13766,0.0514 -0.12706,0.0728 -0.1135,0.089 -0.10269,0.10809 -0.38358,-0.002 -0.39168,-0.37818 -0.38358,-0.005 -0.38088,0.36738 -0.28904,-0.005 -0.39168,-0.37278 -0.38898,-0.005 -0.38088,0.37007 -0.38628,-0.005 -0.10521,-0.11085 -0.11627,-0.0973 -0.12966,-0.0728 -0.13766,-0.0566 -0.14845,-0.0352 -0.14847,-0.0103 -0.14586,0.009 -0.14306,0.0324 -0.14306,0.0514 -0.0351,0.0243 -0.0486,0.0243 -0.17029,0 -0.0243,0.027 -0.0216,0.0432 -0.0216,0.0674 -0.0216,0.0865 0.027,1.80715 -2.33119,-0.0244 0.0104,0.65371 0.79687,0.77797 0,0.0103 0.91033,0.89683 0.0594,4.45438 -4.19506,-0.0352 0,0.10544 0.005,0.55376 0.14869,0.10545 0.6645,0.46462 0.0172,0.99677 0.027,0.0194 0.12166,0.0782 0,0.25122 0.78876,0.51864 0.0104,0.77527 3.13617,2.00162 0.009,0.74015 0.0541,3.94115 -1.22908,-0.009 0.0104,0.4241 0.0998,0.0458 0.51594,0.2242 0.0104,0.79958 0.0486,0.0216 0.25932,0.10268 0.009,0.73745 0.0486,0.0194 0.25931,0.0973 0.14047,10.65649 -1.85037,0.005 0.005,0.14046 0.21611,0 0.007,0.32956 0,0.002 0.14306,0 0.10522,0.005 0.12706,0.0152 0.11886,0.0244 0.11627,0.035 0.11603,0.0378 0.10545,0.0512 0.10809,0.054 0.10004,0.0649 0.089,0.0674 0.0836,0.0728 0.0784,0.0838 0.0152,1.0805 0,0.002 0.34845,0 0.24852,18.62251 -0.89681,0.68072 0.0216,1.59645 -8.36311,0 -0.51055,-0.93194 0.0514,-0.027 -0.43761,-0.8509 -0.0784,0.0404 -0.089,-0.16466 0.0514,-0.046 -0.22151,-0.26202 -0.45921,-0.93194 -0.47543,-1.11292 -0.0622,0.0244 -0.027,-0.054 0.0594,-0.0298 -0.4349,-0.84279 -0.0514,0.027 -0.0216,-0.0432 0.054,-0.0298 -0.42951,-0.72663 -8.69806,-17.47178 c 0.44301,-0.59158 0.71043,-1.32362 0.71043,-2.11779 0,-1.61805 -1.10211,-2.9849 -2.60401,-3.4117 l -5.08108,-18.45773 -0.55376,-2.07997 0,-0.0784 -0.0216,0 -1.23988,-4.6559 c 0.66451,-0.56725 1.09671,-1.46138 1.09671,-2.47435 0,-0.88872 -0.33766,-1.69099 -0.8698,-2.25825 l 0.0103,-0.0104 -0.39709,-0.36467 -0.0216,0.0216 c -0.26202,-0.18909 -0.55916,-0.33226 -0.87521,-0.41059 l -0.78606,-6.790977 -0.0104,-0.12166 -1.76122,-15.21892 -0.0104,-0.25662 -0.0172,0.002 -0.0104,-0.0757 0.005,0 -0.005,-0.046 0.0152,-0.005 -0.0566,-0.31334 -1.73152,-14.981211 -0.005,-0.12166 0.005,-0.116049 -0.005,0 -0.005,-0.113495 0,-0.0023 -0.005,-0.04864 -0.31605,-7.17995 0.0104,-0.299849 -0.0216,0 -0.005,-0.132469 0.0151,-0.0023 -0.027,-0.235006 -1.24528,-28.230906 0.0103,-1.061592 0,0 0.005,-0.359265 0,-0.316051 0.005,-0.0046 -0.005,-0.0092 0,-0.03243 -0.0324,0 0,-0.0023 0.0324,0 0.005,-0.334968 -0.0782,0 0,-0.0023 0.0782,0.0023 -0.0782,-0.0023 0.027,-0.02426 0.0512,0 0,-0.04864 0.0432,-0.03783 -0.0216,-0.02162 0.25392,0.01943 0.0104,-0.09728 -0.28634,-0.02162 0,-0.02955 0.28094,0.0023 0.005,-0.367372 0.005,0 0,-0.046 0.0836,0.08923 0.23232,-0.216102 0.0406,0.0023 0.0865,-0.12166 -0.0432,-0.0514 0.0486,-0.04036 -0.0811,-0.08107 0,-0.04059 0.10004,0.09728 0.005,-0.0046 -0.10544,-0.105217 0,-0.175682 -0.0622,0 -0.005,-0.01299 0.19449,-0.181087 -0.005,-0.0092 0.23771,0.01943 0.005,-0.09728 -0.32685,-0.02702 0,-0.0046 0.0103,0 -0.005,-0.02978 0.32144,0.0023 0.005,-0.06486 -0.005,0 0,-0.04324 0.34847,0.02955 0.0103,-0.09188 0.32145,0 0,-3.271227 -0.73745,0 0.0728,-0.06738 0.0216,-0.01035 -0.005,-0.0092 0.20529,-0.199888 c 1.12372,-0.524046 1.80985,-1.223683 1.80985,-1.996235 0,-0.953547 -1.04539,-1.799049 -2.66075,-2.333893 l 0,-3.300941 c 0,-0.01035 0.005,-0.02702 0.005,-0.04324 l 0.0432,0 0,-0.01035 -0.0432,0.0023 c 0,-0.0023 0,-0.0023 0,-0.0023 l 0.0151,0 0,-0.09728 -0.0104,0 c 0,-0.02162 0.005,-0.04324 0.005,-0.06486 l 0.005,0 1.1e-4,-0.05646 c 0.005,-0.04864 0.005,-0.09441 0.005,-0.145877 0,-1.496498 -0.73205,-2.817417 -1.83417,-3.57647 l 0,-0.14046 -0.21879,0 0,0 0.21879,-0.0023 -0.22689,0 c -0.005,-0.0023 -0.0152,-0.01299 -0.026,-0.01943 l 0,-0.01725 0.005,0 -0.0216,-0.04324 0.0104,-0.0092 -0.11627,0.0023 c -0.0486,-0.02702 -0.0944,-0.0514 -0.14846,-0.07279 l 0.005,-0.07279 0,-0.305242 0.0216,-0.07026 0.0378,0 0,-0.06221 0.005,-0.0046 -0.005,0 0,-0.01518 -0.0757,0 0,-0.05681 0.005,-0.01035 0.25391,0.0023 0,-0.0023 0.0378,0.0023 0,-0.524047 -0.005,0 0,-0.0092 -0.16467,0 0,-0.175694 -0.005,0 0,-0.0092 -0.005,0 -0.0892,0.0023 0,-0.0023 -0.0324,0 0.0378,-0.03243 -0.0568,-0.05945 0,-0.01943 0.0568,-0.05405 -0.0622,-0.06738 0,0 0.0674,-0.06221 -0.0622,-0.05945 0.013,-0.01299 0.0649,-0.05945 -0.005,-0.0046 -0.0103,0.0092 -0.005,-0.01035 0.005,-0.0092 -0.0595,-0.06221 0.0172,-0.386276 -0.0194,0 0,-0.1836861 0.009,0 -0.009,0 0.009,-0.0023 -0.009,0 c 0.002,-0.04324 0.009,-0.08647 0.009,-0.135068 0,-0.03783 -0.007,-0.07026 -0.009,-0.108091 l 0,-0.02162 c -0.0324,-0.199899 -0.12144,-0.386287 -0.26472,-0.548355 l 0,-0.01518 0.005,0 0,-0.0092 -0.005,0 0.005,-0.210697 0.005,0 0,-0.0092 -0.005,0 0,-0.0568 -0.005,0 0.005,-0.02162 0,-0.01943 0.0104,0 0,-0.0023 -0.0104,0 0,-0.108091 0.005,0 0,-0.0092 -0.005,0 0,-0.01035 0.005,-0.378181 -0.005,0 0,0 c 0,-0.556462 -0.27012,-1.066997 -0.66451,-1.342526 l 0,-0.0023 -0.005,-0.0046 -0.005,0 c -0.0702,-0.04864 -0.14327,-0.08923 -0.2161,-0.121672 l 0,-0.01035 -0.0152,-0.0046 -0.005,0.01035 c -0.0324,-0.01518 -0.0728,-0.02978 -0.11085,-0.04059 l 0,-0.0092 -0.0152,-0.0046 0,0.0046 c -0.0324,-0.0046 -0.0568,-0.01299 -0.089,-0.01943 l 0,-0.0046 -0.027,0 0,0 c -0.0151,0 -0.0324,-0.0046 -0.0512,-0.0046 l 0,-0.0023 -0.0216,-0.0023 0,0.0023 c -0.0322,-0.0023 -0.0646,-0.0023 -0.089,-0.0069 l -0.0216,0 c -0.0324,0 -0.0649,0.0023 -0.0946,0.0069 l 0,-0.0023 -0.0216,0.0023 c -0.0216,0.0023 -0.0432,0.0092 -0.0702,0.0092 l 0,0 -0.0152,0.0046 0,0 c -0.046,0.01035 -0.089,0.01943 -0.12966,0.03507 l 0,-0.0023 -0.0152,0.0046 0,0 c -0.55917,0.194484 -0.95625,0.829289 -0.95625,1.523509 l 0,0.410597 0.005,0 0,0.02955 -0.0216,0 0,0.02438 0.0216,0 0,0.01506 -0.005,0 -0.007,0.127076 0,0.199888 -0.005,0 0.005,0.0092 c -0.15215,0.164666 -0.2522,0.356562 -0.27921,0.564557 l -0.005,0 0,0.03783 c 0,0.03243 -0.0104,0.06486 -0.0104,0.09188 0,0.03783 0.005,0.07279 0.0104,0.105447 l -0.005,0 -0.005,0.05404 0.0104,0.0023 0,0.07026 -0.0104,0 -0.005,0.05117 0.0151,0 0,0.01725 -0.0151,0 0,0.06221 0.0151,0 0,0.0046 -0.0151,0 -0.005,0.440299 0.027,0 0,0.0023 -0.0152,0.256625 0.0514,0.0023 0.005,0.01506 -0.0568,-0.0046 0,0.03783 -0.10522,-0.0023 0,0.01035 -0.007,0 0,0.153857 -0.2161,-0.0023 -0.005,0.524035 0,0.0023 0.0378,0 0.0622,0.0023 -0.027,0.0023 -0.0351,0 0.0194,0 -0.0194,0.0023 0.0297,0 -0.0216,0 0.19729,0 0,0.089 -0.0703,0 0,0.09188 0.0703,0 0,0 -0.0703,0 0,0.0836 0.0703,0 0,0.399787 -0.15408,0.0092 -0.005,0.03783 -0.027,-0.0023 -0.005,0 -0.23501,-0.01725 0,0.01299 -0.005,0.02426 0,0 -0.005,0.01518 0,0.05405 -0.005,0 0,0.0514 -0.005,0 0,0.06221 -0.005,0 0,0.0092 -0.005,0 0,0.02702 -0.005,0 0,0.02978 c -1.12913,0.756362 -1.88279,2.090781 -1.88279,3.611588 l 0,0.994069 -0.0324,0.359265 0.0324,0.0023 0,0.06221 -0.0324,0 0,0.09728 0.0324,0 0,1.909797 -0.0378,0.310647 c -0.1999,0.06485 -0.39709,0.140461 -0.57538,0.216101 l -0.15386,0.03243 0.005,0.03243 c -1.16965,0.524046 -1.89359,1.242576 -1.89359,2.036746 0,0.807682 0.75366,1.539723 1.97463,2.069174 l 0.0152,0.02438 -0.0541,0.09981 0.12167,0.07026 0.005,0 -0.0104,0.01943 -0.59158,0 -0.0151,1.44788 0.0151,0 0,0.0092 -0.0151,0 0,0.305242 0.0151,0 0,0.0023 -0.0151,0 0,0.505141 0.0151,0 0,0.0023 -0.0151,0 0,0.399788 0.0151,0 -0.0151,0 -0.005,0.199888 0.0216,0 0,0.0023 -0.0216,0 0,0.100041 0.0216,0 0,0.297147 0.60778,0 -0.005,0 0.14306,0.143049 -0.0324,0.09441 -0.005,0 0,0.01725 -0.0649,0.205304 -0.0406,0.04324 0.0216,0.02162 -0.0103,0.03243 0.027,0.0092 -0.0378,0.03783 0.36467,0.370074 0.10521,-0.105446 -0.005,0.194495 0,0.359265 0.30524,0 -0.0432,0.04324 0.0998,0.102687 -0.002,0.121453 0.002,0 0,0.09188 -0.002,0 0,0.07566 -0.10809,0.102686 0.054,0.046 -0.054,0.0514 0.10809,0.105217 -0.005,0.343062 0,0.348456 -0.005,0.367372 0,0 -0.005,0.353872 0.005,0 0,0.06738 -0.005,0.18909 0,0.08647 -1.69368,27.855427 -0.0541,0.440311 0.027,0.0023 -0.005,0.09981 -0.0324,0 0,0.540249 -0.416,6.828803 -0.027,0.199888 0.0152,0 -0.005,0.09981 -0.0152,0 0,0.245803 -1.9449,14.767817 -0.10269,0.529437 0.0104,0.002 -0.005,0.0432 0.0172,0 -0.007,0.0514 -0.0243,-0.002 -0.027,0.41058 -1.95302,14.80833 -0.0103,0.0757 -0.0892,-0.005 -0.0944,1.396553 -0.77527,5.90225 c -0.30794,0.0568 -0.59698,0.16467 -0.8617,0.31874 l -0.0298,-0.0378 -0.40249,0.36198 0,0.002 c -0.651,0.56467 -1.05349,1.43988 -1.05349,2.41233 0,1.02108 0.4376,1.92331 1.11292,2.49057 l -1.13183,4.11943 -0.027,0.0811 0.005,0.002 -0.0944,0.34846 -0.0216,0 0,0.0728 -0.31064,1.12643 -5.12971,17.65816 0.13247,0.0378 0,0.005 -0.13247,-0.0406 -0.27282,0.95084 -0.24852,0.67262 -0.0486,0.0432 -0.005,-0.002 -0.0838,0.089 c -0.0622,0.009 -0.12706,0.0194 -0.18909,0.0324 l -0.0865,-0.0432 -0.0295,0.0728 c -1.56133,0.39169 -2.71748,1.78013 -2.71748,3.43871 0,0.8644 0.31064,1.65857 0.83199,2.27176 l 0.0703,0.27823 -0.1865,0.49704 -0.002,0.0103 -0.42951,0.81308 -0.005,0.009 0,0 -0.859,1.64507 -0.005,0.009 -0.4268,0.81307 -0.005,0.013 -1.57754,3.0038 -0.0674,0.14046 0,0 -0.005,0.002 -0.44841,0.8563 0,0.005 -0.0432,0.0757 -0.0216,-0.009 -0.0324,0.11605 -0.66451,1.26689 -0.0296,0.0648 -0.027,-0.0103 -0.91843,1.72071 0.0324,0.0152 -0.0541,0.10522 -0.027,-0.0103 -0.0782,0.21329 -1.9314,3.68453 -2.05565,3.55486 0.0944,0.0541 -0.0216,0.0298 -0.089,-0.0514 -0.45922,0.8752 0.0404,0.0216 -0.013,0.0378 -0.0486,-0.0194 -0.2053,0.443 c 0,0 -0.4376,0.6348 -1.04539,1.52891 l 0.25933,-57.36402 -0.6348,0.27553 -1.38035,0.97785 -2.10428,1.67479 -1.4938,1.25879 -1.46678,2.83632 0.005,-1.59915 -3.03622,2.64995 -0.64831,1.57753 -4.45709,4.62456 0.002,27.11259 3.25773,3.37658 0,0.19989 -2.43925,-0.1919 -0.1973,-0.0514 -0.38087,-0.089 -0.91302,-0.18369 -0.92654,-0.11885 -0.31065,-0.0404 -0.40519,-0.027 -0.48082,-0.0194 -0.36197,-0.013 -0.26743,-0.005 -0.28092,0 -0.26473,0.009 -0.41059,0.0172 -0.46462,0.0243 -0.39168,0.0324 -0.81308,0.11085 -0.4268,0.0594 -0.93734,0.19189 -0.33225,0.0919 -0.10809,0.0298 -2.62563,0.22421 3.38198,-3.60888 -0.0622,-27.16121 -4.40306,-4.68399 -0.49271,-1.59094 -3.09565,-2.70666 0.0103,2.27446 -1.5127,-3.53865 -1.53702,-1.29121 -2.19073,-1.7207 -1.46138,-1.01027 -0.69692,-0.28634 0.4241,59.14956 -2.96599,0 -0.005,-0.20788 0.046,-73.895753 -2.00164,-0.027 -0.15926,-5.1054 -0.14847,-0.4484 -4.72721,-9.432813 -0.13247,-4.724511 -0.046,-0.137655 -1.57214,-2.79581 -0.0378,0.0836 -0.005,-0.0092 -1.42357,3.04703 -0.013,0.140461 0.12144,4.648871 -4.20586,10.059509 -0.009,0.17828 -0.0104,0.0378 0.005,0.22691 0,0.005 0.14587,6.37767 -1.86928,1.96923 0.1999,46.507661 -6.91793,-3.1767 -9.89474,-5.45114 -3.50083,-0.27013 -15.55388,-0.0244 0,-5.76179 -0.4322,-0.0432 -0.0298,-0.75635 -0.11062,-1.0724 -0.1757,-1.0589 -0.23771,-1.04809 -0.29983,-1.02918 -0.36467,-1.01027 -0.42411,-0.98326 -0.48082,-0.95625 -0.54025,-0.92113 -0.59699,-0.89142 -0.6483,-0.8482 -0.0728,-0.0865 -0.624,-0.72394 0.0152,-4.97302 -0.002,-0.40249 -0.0298,-0.39979 -0.0486,-0.39708 -0.0728,-0.39439 -0.10004,-0.38628 -0.11885,-0.38358 -0.14588,-0.37277 -0.16747,-0.36738 -0.1865,-0.35387 -0.20789,-0.34305 -0.22691,-0.32956 0,0 -0.0103,-0.013 -0.13766,-0.17288 0.0649,0 0.002,-0.54836 0.002,0 0,-0.50243 -0.002,-0.0458 -0.20529,-0.007 0,0.2081 -0.005,0 0,0.18909 0.005,0.0514 -0.005,0.57536 -0.19989,0.24852 -0.22421,0.31875 -0.013,0.0216 -0.2135,0.34307 -0.19168,0.35386 -0.16489,0.36196 -0.15127,0.37278 -0.12426,0.38088 -0.10004,0.38898 -0.0784,0.39168 -0.0541,0.39979 -0.0324,0.39708 -0.005,0.39979 -0.0244,4.97033 -0.0674,0.0728 0.0324,-5.49707 -0.027,-0.0298 -0.0919,-1.13183 -0.0241,-0.28362 0,-0.002 -0.0216,-0.24582 -0.23771,-1.55593 -0.34847,-1.52622 -0.45381,-1.4992 -0.56456,-1.45867 -0.65911,-1.41006 -0.75905,-1.36144 -0.8536,-1.302011 -0.1919,-0.24851 -0.005,-0.005 -0.22691,-0.30254 -0.51864,-0.67802 -0.009,-0.0104 -0.16488,-0.2161 -1.00487,-1.12643 -1.08051,-1.04809 -0.009,-0.009 -0.14306,-0.14046 -1.11292,-0.93194 -0.4241,-0.20788 -0.45651,-0.13247 0.0703,-5.88605 0,-0.55376 -0.035,-0.54836 -0.0674,-0.54837 -0.10005,-0.54024 0,-0.0103 -0.005,-0.0242 -0.13246,-0.53486 -0.16749,-0.52404 -0.1973,-0.51594 -0.22691,-0.50244 -0.25932,-0.48893 -0.28633,-0.472714 -0.035,-0.0514 -0.29715,-0.429501 -0.24311,-0.305242 0.005,-0.545653 0.0298,0 0,-0.256624 -0.013,-0.07279 -0.0104,-0.04864 0.007,-0.356574 -0.0172,-0.07279 -0.009,-0.03496 -0.0172,-0.07279 -0.28634,-0.0023 -0.002,0.235017 -0.0298,0 -0.005,0.262018 0.0194,0.07026 0.0103,0.05117 -0.0103,0.823884 0.0172,0.07279 0.005,0.03507 0.0104,0.0568 -0.13247,0.156675 -0.32685,0.424096 -0.29444,0.443008 -0.26472,0.46462 -0.24041,0.48083 -0.20789,0.49433 -0.17548,0.51323 -0.14586,0.52135 -0.1135,0.53215 -0.027,0.16207 -0.0836,0.54566 -0.046,0.55106 -0.013,0.55106 -0.0838,5.83742 -0.45651,0.10809 -0.4376,0.18369 -1.13993,0.8752 -1.08051,0.96975 -0.13765,0.13507 -0.11605,0.0998 -0.10004,0.10809 -0.005,0.005 -0.0674,0.0703 -0.87792,0.91304 -0.0406,0.046 -0.0865,0.089 -0.98596,1.19936 -0.89952,1.2669 -0.80768,1.334421 -0.71043,1.39385 -0.60779,1.44787 -0.50514,1.49381 -0.39708,1.53162 -0.28633,1.56132 -0.14868,1.37495 -0.16747,0.10268 -0.0194,0.8644 -0.0514,0 -0.002,0.1865 -0.0324,0 -0.005,0.16747 0.0324,0.0406 -0.0103,0.52946 0.0298,0.0349 0.0216,0 0,0.005 -0.12145,0.14047 -0.20789,0.28364 -0.18908,0.28903 -0.17289,0.30524 -0.15407,0.31335 -0.13766,0.32144 -0.11605,0.33227 -0.0919,0.33766 -0.0757,0.34305 -0.054,0.34847 -0.035,0.35117 -0.0104,0.35386 -0.035,1.65857 -0.29174,-0.39168 -0.68072,-0.80768 0.11062,-4.9244 0.005,-0.40249 -0.0194,-0.40249 -0.005,-0.0703 -0.046,-0.40249 -0.0648,-0.39168 -0.0919,-0.39168 -0.11626,-0.38358 -0.13506,-0.37547 -0.16208,-0.36467 -0.18087,-0.35928 -0.20249,-0.34305 -0.22691,-0.33226 -0.19168,-0.24582 0.013,-0.48893 0.0404,0 0.005,-0.19189 -0.0404,-0.0541 0.005,-0.25932 -0.035,-0.0487 -0.20788,0 -0.005,0.2053 -0.0404,0 -0.005,0.18909 0.0404,0.0568 -0.0172,0.60238 0.0378,0.046 0.0486,0.002 -0.15127,0.17287 -0.24042,0.31876 -0.22149,0.33225 -0.1999,0.34577 -0.17548,0.35386 -0.15667,0.36737 -0.13506,0.37818 -0.11062,0.38357 -0.0865,0.39439 -0.0649,0.39439 -0.0378,0.40248 -0.013,0.39979 -0.12166,5.00544 -0.73475,0.78336 -0.68612,0.8239 -0.63209,0.8725 -0.57807,0.90763 -0.52135,0.94274 -0.46191,0.97785 -0.39979,1.00487 -0.34036,1.02919 -0.27553,1.05078 -0.20789,1.0697 -0.14306,1.08051 -0.0594,0.87522 -0.81578,0.0919 -0.12426,4.33823 -0.25392,0.36197 -0.2323,0.38628 -0.20249,0.40248 -0.12426,0.29985 -11.63974,-0.0216 0.046,-1.36683 0.089,0 0.0173,-0.44572 -0.0865,-0.027 -0.75637,-2.17722 -2.13399,-0.002 0.005,-0.089 -0.0486,-0.1811 0.0244,0 0.009,-0.0378 0.009,-0.0244 0.0296,-0.82659 -0.0103,-0.0297 -0.0594,0 0.0324,-0.0757 0.002,-0.002 -0.0104,-0.0378 -0.009,-0.002 -0.26744,-0.0973 -0.005,-0.005 -0.25392,0 -0.013,0.0298 0.002,0.005 0.013,0.054 -0.0486,-0.002 -0.013,0.0244 -0.0297,0.82928 0.005,0.0296 0.005,0.0432 0,0 0.0298,0 -0.0674,0.16207 -0.0103,0.27284 -0.93193,1.56942 -0.11886,0 -0.0194,0.46192 0.10004,0.027 0.30524,0.002 -0.14046,3.617 -0.0378,0.92383 -0.24852,0.44031 -0.38357,-0.0728 -0.054,-0.002 0.0349,-0.29985 0.013,-0.37276 -0.0172,-0.37278 -0.0512,-0.36467 -0.0838,-0.36198 -0.1135,-0.34845 -0.14306,-0.34307 -0.17568,-0.32685 -0.1999,-0.31334 -0.2296,-0.29444 -0.25392,-0.27553 -0.27823,-0.25122 -0.29984,0.23771 -0.27283,0.26742 -0.25392,0.28634 -0.2296,0.30524 -0.1999,0.32145 -0.17007,0.33766 -0.14328,0.34846 -0.1135,0.35927 -0.0811,0.36467 -0.0486,0.37007 -0.0151,0.37278 0.013,0.31065 -0.51324,0.0404 -0.0172,0.37818 0.22149,0.0406 -0.15948,3.81419 -0.15667,3.84389 -0.57537,0 -0.0244,0.6456 0.11886,0.005 0.31874,0.013 -0.12966,3.13345 -0.035,-0.39438 -0.37007,0 -0.18369,0.37818 0.0297,0.4079 0.0594,0.30254 0.013,0.13765 0.0782,0.11085 0.36198,0.0998 -0.0172,0.4268 -0.29444,-0.15948 -0.15927,-0.11349 -0.0173,-0.13767 -0.0973,-0.10269 -0.17007,-0.0194 -0.11605,0.005 -0.31335,0.13507 -0.22419,0.18108 -0.30254,0.67262 -0.0378,0.15927 0.0594,0.12966 0.1135,-0.005 0.22961,-0.089 0.28903,-0.12166 0.2188,0.0104 0.11063,0.24041 0.14047,0.12145 -0.12967,0.12166 -0.0243,0.14847 0.013,0.27283 0.0946,0.24581 0.26202,0.10809 0.16208,0.14847 0.10269,0.21069 -0.0674,1.59645 -2.91466,0.002 -0.69422,0 -0.027,-0.24311 -0.002,-0.57267 -0.0349,-0.37548 -0.0432,-0.18907 -0.16748,-0.10545 0.45921,-0.16468 0.32146,-0.12166 0.005,-0.15927 0.027,-0.61588 -0.5234,-0.3758 -0.41869,-0.2188 -0.38898,-0.17007 -0.48084,-0.089 -0.41599,-1.05079 -0.0811,-0.30524 -0.0919,-0.12966 -0.18909,-0.0703 -0.0324,-0.30794 -0.2161,-0.11627 0.0151,-0.24041 -0.37546,0 -0.14048,0.002 -0.25391,0.22691 0.0103,0.79417 -0.18368,0.15948 -0.30254,0.0297 -0.39709,-0.054 -0.0919,-1.15884 -0.29443,0 -0.14306,0.002 -0.20789,0.42409 0.0298,0.46192 0.0649,0.34306 0.0152,0.15387 0.089,0.12965 0.65101,0.1811 0.47542,0.0703 0.14046,-0.002 0.13766,-0.14846 0.10545,0.0152 0.0432,0.39708 -0.0324,0.17569 -0.0946,0.0404 -0.20249,0.18109 -0.11062,0.0324 -0.11626,-0.0351 -0.31064,-0.15948 -0.61319,-0.33496 -0.18088,-0.12706 -0.0194,-0.15668 -0.11085,-0.11626 -0.18909,-0.0216 -0.14587,0.005 -0.35926,0.15127 -0.25663,0.20789 -0.34036,0.75905 -0.046,0.17828 0.0622,0.14847 0.15127,-0.005 0.25931,-0.10522 0.32146,-0.12966 0.2323,0.009 0.12708,0.27012 0.15666,0.13766 -0.14867,0.13765 -0.0243,0.17007 0.0104,0.30795 0.10545,0.27823 0.29714,0.12426 0.18368,0.16466 0.46462,0.96977 0.0378,0.37276 -0.14306,0.0104 -0.0104,0 0.0104,0 -0.57267,12.38529 -1.16425,0 0.0566,-13.51171 -2.43924,-0.013 -0.88332,0 0.005,-1.5127 -2.05835,0 0.027,-6.42631 -1.16425,0.16208 -0.027,6.26153 -0.89681,0 -1.16154,0.027 0,0.34847 -2.50947,0 -0.6105,-0.16748 0,-0.0378 -0.13766,0 -0.58347,-0.15667 -1.0886,0 0.0194,-5.01624 -1.03188,0.12426 -0.0172,4.88928 -8.8034,-0.002 -10.43229,-3.75475 -11.78021,-0.0104 0.002,-3.15778 0,-2.10158 -0.40248,-0.20789 -0.53756,-0.0541 -1.35604,-1.03728 -0.35926,-0.19189 -3.24151,-1.0346 -2.50948,-0.35656 0,-2.79851 -0.16467,-0.0919 -2.50407,-0.61859 -0.18369,-0.046 -0.49433,-0.0243 -0.57266,0.005 -0.38089,0.035 -2.50947,0.62399 -0.2188,0.0973 0,2.80391 -2.42034,0.34036 -3.2118,1.02108 -0.50783,0.18627 -0.95895,0.72395 0,-1.15615 -0.002,-2.96058 -0.0703,-0.17007 0.005,2.9957 -0.54565,-8.20914 -0.98326,-0.005 -0.0103,-7.55273 -0.15949,-0.57808 0.013,8.13081 -0.98326,-0.005 -0.10545,0.75895 -20.98071,-0.0836 -0.2242,-0.76445 -2.1421,-0.0104 -1.73422,3.37117 -0.46192,-3.0092 -0.82388,5.38092 -0.52405,0 0.002,0.14846 -0.18109,0.25661 -2.28257,-1.11291 0.18369,-0.26203 -0.0216,-0.0241 -0.34036,-0.2215 -0.2161,0.31604 -2.26366,-1.10482 0.16208,-0.24041 -0.0152,-0.0216 -0.37008,-0.24311 -0.20529,0.29984 -2.24205,-1.09671 0.16208,-0.24041 -0.013,-0.0194 -0.37008,-0.24041 -0.20248,0.29445 -2.24474,-1.09402 0.16747,-0.24312 -0.013,-0.0151 -0.36737,-0.24311 -0.1999,0.29983 -2.15291,-1.05079 -0.0103,-0.16747 0.0811,-0.12167 -0.005,-0.0103 -0.0865,-0.0594 -0.13247,-2.11509 0.0486,-0.002 0.0865,-0.0216 0.68071,-0.17568 0.0782,-0.0351 0.0622,-0.0486 0.0378,-0.054 0.013,-0.062 -0.009,-0.0594 -0.0378,-0.0568 -0.16488,-0.17028 -0.054,-0.0459 -0.0757,-0.0378 -0.0512,-0.0104 -0.10809,-0.11885 -7.968731,-5.53219 0.461921,-0.54025 0.29714,0.19449 0.005,-0.002 0.24312,-0.36737 -0.25393,-0.16467 1.64237,-1.9233 0.30254,0.19449 0.24311,-0.37007 0,-0.002 -0.25121,-0.16489 1.65047,-1.9341 0.29984,0.1973 0.24852,-0.37548 0,-0.005 -0.24852,-0.16468 1.65858,-1.9422 0.29983,0.1973 0.24852,-0.37818 0,0 0.005,-0.009 -0.25381,-0.1651 1.66668,-1.95301 0.30524,0.1973 0.007,-0.013 0.25122,-0.37548 -0.25122,-0.16748 1.67208,-1.95841 0.30525,0.1973 0.0104,-0.0151 0.24852,-0.38088 -0.25393,-0.16747 1.68289,-1.96923 0.30524,0.19989 0.0172,-0.0216 0.24311,-0.36737 -0.25932,-0.16488 1.7018,-1.99624 0.30524,0.1999 0.0194,-0.0216 0.12708,-0.19189 -7.13675,-4.62186 -0.11625,0.17569 -0.005,0.0296 0.27553,0.17829 -1.15344,2.36901 -0.28093,-0.18109 -0.22961,0.35116 -0.002,0.0244 0.31605,0.20789 -1.13724,2.33928 -0.25661,-0.16747 -0.24852,0.38358 -0.002,0.0216 0.29714,0.19191 -1.12642,2.31228 -0.25663,-0.16489 -0.24581,0.38088 0,0.0151 0.29713,0.19449 -1.12102,2.30148 -0.25694,-0.16467 -0.24582,0.37817 0,0.0103 0.29984,0.19168 -1.12102,2.29607 -0.25122,-0.16466 -0.24582,0.37277 0.005,0.009 0.29444,0.19449 -1.112916,2.28257 -0.25122,-0.16208 -0.243113,0.37007 0.0046,0.005 0.29173,0.1945 -1.104817,2.26905 -0.248517,-0.15926 -0.0046,-0.002 -0.243113,0.37277 0.297136,0.1945 -0.280934,0.58077 -1.593745,-1.10752 -0.178281,0 -3.760167,2.59321 -0.772552,-0.6591 0.191896,-0.29715 -0.361967,-0.24041 -0.01518,0 -0.156675,0.24311 -1.877381,-1.60454 0.191908,-0.29985 -0.364669,-0.23771 -0.01518,-0.002 -0.159262,0.24311 -1.871976,-1.60184 0.191896,-0.29985 -0.36467,-0.23771 -0.02162,-0.005 -0.153857,0.24311 -1.871977,-1.59645 0.194495,-0.30254 -0.364681,-0.23511 -0.02702,-0.009 -0.156675,0.24311 -1.86387,-1.59374 0.189091,-0.30254 -0.361967,-0.23501 -0.02702,-0.0103 -0.156675,0.24312 -1.858465,-1.58834 0.189079,-0.30525 -0.364669,-0.23772 -0.02978,-0.0103 -0.153869,0.24312 -1.858465,-1.58564 0.189091,-0.30255 -0.345765,-0.2269 -0.03783,-0.0152 -0.15127,0.24852 -1.866572,-1.59645 0.186492,-0.30254 -0.181087,-0.11886 -0.04059,-0.0194 -4.322022,7.00978 0.164885,0.10809 0.04324,0.009 0.164884,-0.26472 2.190719,1.0697 -0.170071,0.27282 0.326849,0.2161 0.04324,0.009 0.18909,-0.30794 2.185314,1.06429 -0.159262,0.25122 0.361967,0.23771 0.03783,0.005 0.178281,-0.28634 2.174517,1.05891 -0.156675,0.25391 0.359277,0.23501 0.03496,0.002 0.181098,-0.28633 2.182612,1.06429 -0.159262,0.25392 0.361967,0.23501 0.02978,0.002 0.181087,-0.28903 2.193421,1.0697 -0.162068,0.25392 0.36467,0.23501 0.02426,-0.002 0.183686,-0.28364 2.201527,1.0724 -0.162079,0.25122 0.361967,0.23771 0.02162,-0.002 0.186491,-0.28903 2.206933,1.08051 -0.16208,0.25121 0.299838,0.19449 -5.464648,3.76556 0.07566,0.0298 -0.243113,0.10268 -0.07566,0.0378 -0.06221,0.046 -0.03519,0.054 -0.01035,0.0622 0.01299,0.0594 0.03496,0.054 0.05945,0.0486 0.07842,0.0351 0.424108,0.17568 0.089,0.0216 0.280933,0.0406 -0.642901,8.9844 0.421395,0.38358 0.118854,0.0352 -0.0023,0.0865 -0.823884,0.96435 -0.286326,-0.18909 -0.02702,0.0243 -0.229613,0.35386 0.245815,0.16489 -1.528914,1.78824 -0.283635,-0.18909 -0.02978,0.027 -0.229613,0.35117 0.243113,0.16467 -1.5127,1.77473 -0.286338,-0.18909 -0.03243,0.0296 -0.216102,0.33496 0.245815,0.16207 -1.512711,1.77744 -0.286327,-0.18909 -0.03507,0.0352 -0.110851,0.17289 6.447909,4.2842 -0.18088,8.69537 -8.155104,0 -0.089,0.13225 -0.35117,1.56673 0.0046,-5.40792 -0.0092,-0.002 0,-0.99407 -0.07026,0 0.01035,-9.57598 -1.772026,0 -0.0046,0.34306 0,4.9163 -0.181087,-0.2296 -0.410597,-0.42681 -0.448405,-0.38087 -0.483524,-0.32955 -0.386287,-0.2107 0,-0.51055 -0.124259,-1.15884 -6.029217,0 0.0069,1.60185 -0.545653,0.27824 -0.513249,0.32955 -0.480821,0.38087 -0.224209,0.2188 -0.01943,-4.47869 -0.183686,-0.34306 -1.772027,0 0.05405,9.57598 -0.40249,0 0.0069,0.98056 -0.04059,0.0152 0.02426,4.31932 -0.28904,-0.48352 -0.448406,-0.14306 -7.293411,0 0.297136,-25.97806 -5.356603,-0.12965 -3.074041,0.002 -2.028651,0.0459 0.118854,-21.04285 -3.965448,-0.72934 0,-0.0216 -0.105446,0.002 -0.967059,-0.18088 -0.0023,-0.15127 -0.788777,0.005 -1.269587,-0.23232 -3.090244,0.0194 -6.726151,1.38845 0.04059,10.78344 -2.3555,-0.2107 -3.049733,0.009 -5.029742,0.61048 0.343051,35.4892 -3.336058,1.02379 -1.299301,0 0.186492,6.43981 -2.6391356,0 0,26.16443 723.2551696,0 0,-26.16443 -0.13225,0 z M 419.70418,11.638091 l 0,0.0046 0,-0.0046 z m 58.32568,131.078799 1.16154,0 -0.15948,0.005 -0.37007,0.005 -0.63211,0 0,-0.0104 z m -0.75905,0.0104 0.32144,-0.005 0.0944,0 0,0.005 -0.28364,0 -0.0703,0 -0.0622,0 0,0 z m 2.40411,20.65927 -0.21069,0 0,-0.14306 -0.0172,-3.34147 -0.63751,0.005 0,-0.11885 -0.089,-15.34587 0.2485,-0.0649 -0.005,-0.87521 0.0514,-0.0674 0.0595,-0.0622 0.0622,-0.0566 0.0703,-0.0487 0.0728,-0.0486 0.0728,-0.0404 0.0811,-0.0324 0.0782,-0.027 0.0784,-0.0194 0.26473,-0.0216 0,-0.25662 0.14845,-0.005 0,-0.11085 -0.28633,0 -0.11604,0.005 -0.61589,0 0,-0.005 -0.27013,0 0.16467,-1.86658 0.6483,-1.71531 1.07511,-1.47758 1.43437,-1.14264 1.68829,-0.71584 1.66937,-0.22149 0.14588,0.002 0.14845,0 1.66669,0.22961 1.68288,0.71854 1.43707,1.14533 1.07511,1.47759 0.6483,1.7099 0.18109,1.85577 -1.27229,0 0,0.1081 0.14846,0.009 0,0.25393 0.27823,0.027 0.0595,0.013 0.0784,0.0297 0.0782,0.0298 0.0757,0.0405 0.0728,0.046 0.0622,0.0486 0.0649,0.0594 0.0568,0.0594 0.0541,0.0674 0,0.87252 0.24311,0.0702 0.0104,15.25944 0,0.11626 -0.63479,0.005 0.005,3.32796 0,0.14046 -0.2107,0.002 0,1.4938 0.24311,0.91033 -12.32586,0 0.2161,-0.81038 -0.0104,-1.49921 z m -58.07986,-133.496436 0,0.0023 -0.005,-0.0023 0.005,0 z m -6.54246,74.868216 0.55916,-6.131867 0.51595,-3.2064 0,-0.005 0.005,-0.0104 0.0432,-0.26742 -0.0324,-0.005 0,-0.009 0.0324,0.005 0,-0.009 -0.0324,-0.002 0.005,-0.0296 0.0324,0.002 0.36197,-4.4841 0.0541,-0.60778 0,-0.002 0.23231,-2.89576 0.12707,-1.58564 0.0298,-0.34577 0.027,0.002 0.027,-0.4484 -0.0216,-0.002 0,-0.0486 0.027,0 0,-0.24312 0.0172,0 0.0324,-0.46461 -0.027,0 0.005,-0.0514 0.0216,0 0,-0.0649 0.25122,-3.11185 0.0104,-0.148464 0.72394,8.981704 0.0152,0.43761 0.0194,0 0,0.0296 -0.013,0.005 0.18909,2.3447 0.12707,2.71476 0.10521,-0.005 0.005,0.0594 -0.0944,0.0152 0.12424,0.80497 0.0378,-0.005 0,0.002 -0.0378,0.002 0.0757,0.47543 -0.005,0 0.22691,2.82282 -0.0216,0 -0.0728,0.30254 0.12167,0.0298 0.005,0.0243 0.005,0 0,0.0103 0.009,-0.002 0,0.0104 0.0973,-0.009 0.0244,0.35926 -0.0892,0.009 0,0.0324 0.0946,-0.009 0,0.002 -0.11086,0.0104 0.24312,3.06323 0.005,0.0486 0.29985,3.78988 0,0 0.0172,0.2107 -2.06106,0 0,0.0151 -0.24852,-0.002 -0.27012,0 0,-0.013 -2.06646,0 0.2161,-2.40143 z m -1.85307,13.29832 7.72832,0 0.18649,0.91302 0.0458,0.28364 3.55756,18.3875 -15.75377,0 4.23559,-19.58416 z m -15.47283,44.29532 0.12166,-0.12707 -0.0378,-0.0352 0.13247,-0.25391 0.0728,0.0324 0.33226,-0.75635 -0.0216,-0.0104 0.0486,-0.0919 0.0622,0.0324 1.46138,-2.92006 -0.0674,-0.0351 0.11605,-0.18909 c 0.25393,-3.0038 8.25507,-9.06003 17.33672,-9.06003 6.83689,0 12.36097,3.4306 14.7678,6.4074 l 0.013,-0.0194 0.005,0.005 -0.0194,0.013 c 0.84279,1.04539 1.30741,2.03135 1.30741,2.79851 l 0.51054,1.05078 -0.12965,0.0674 0.32144,0.6591 0.0514,-0.027 0.0378,0.0622 -0.054,0.0324 0.40789,0.66992 0.0622,-0.0404 0.48623,0.99678 c -0.0216,0.0243 -0.0432,0.0486 -0.0622,0.0811 l -0.14846,0 0,0.24852 c -0.28633,0.51594 -0.46461,1.18046 -0.46461,1.91791 0,0.2485 0.027,0.48622 0.0622,0.71582 l 0,0.17029 0.0324,0 c 0.0324,0.14306 0.0649,0.27823 0.10545,0.4106 l -0.0324,0.0151 0.10809,0.1945 c 0.0406,0.11625 0.0946,0.2215 0.14587,0.32685 l -36.80471,0 c 0.0782,-0.32955 0.12706,-0.68072 0.12706,-1.0481 0,-0.79417 -0.1999,-1.50999 -0.52675,-2.04215 l 0.13247,-0.25392 z m -290.7478,-23.99533 0.67263,-0.37818 -0.0649,-1.09941 1.42356,1.21557 -0.19189,0.28633 0.009,0.0243 0.36737,0.24041 0.16747,-0.24852 1.87738,1.60726 -0.19189,0.28092 0.013,0.0297 0.36737,0.24041 0.16747,-0.24582 1.87738,1.60456 -0.19449,0.27823 0.0152,0.0324 0.35115,0.23231 0.17289,-0.24852 1.88818,1.61536 -0.19449,0.27822 0.0152,0.0352 0.18649,0.12166 4.55163,-6.55056 0.0194,4.98112 0.0352,9.44092 -1.22097,0.013 0,0.027 -3.45491,0 -2.46626,0.0216 0.009,1.96923 -0.58347,1.21286 -5.43765,0.0622 -0.1919,-17.08009 0.005,0"
       style="fill:#040606;fill-opacity:1;fill-rule:nonzero;stroke:none"
       id="path14"
       inkscape:connector-curvature="0" />
  </g>
</svg>
